# xmcd
#
# Track frame offsets:
#	150
#	19389
#	34459
#	50219
#	66022
#	82820
#	100735
#	120013
#	137939
#	157153
#	172183
#	187955
#	203609
#	220388
#	238299
#	257583
#	286808
#
# Disc length: 3836 seconds
#
# Revision: 1
# Processed by: cddbd v1.5.2PL0 Copyright (c) Steve Scherf et al.
# Submitted via: audiograbber 1.83.01
#
DISCID=f90efa11
DTITLE=PowerPicks - SC3340
DYEAR=1900
DGENRE=Karaoke
TTITLE0=Tommy Shane Steiner and Bridgette Wilson-Sampres - What We're Gonna Do Ab
TTITLE0=out It
TTITLE1=Daryle Singletary - I'd Love To Lay You Down
TTITLE2=Mark Wills - Nineteen Somethin'
TTITLE3=Darryl Worley - Family Tree
TTITLE4=Dale Watson - Country My A$$
TTITLE5=Lee Ann Womack - Forever Everyday
TTITLE6=Shania Twain - I'm Gonna Getcha Good
TTITLE7=Neal McCoy - The Luckiest Man In The World
TTITLE8=Tommy Shane Steiner and Bridgette Wilson-Sampres - What We're Gonna Do Ab
TTITLE8=out It (vocals)
TTITLE9=Daryle Singletary - I'd Love To You Down (vocals)
TTITLE10=Mark Wills - Nineteen Somethin' (vocals)
TTITLE11=Darryl Worley - Family Tree (vocals)
TTITLE12=Dale Watson - Country My A$$ (vocals)
TTITLE13=Lee Ann Womack - Forever Everyday (vocals)
TTITLE14=Shania Twain - I'm Gonna Getcha Good (vocals)
TTITLE15=Neal McCoy - The Luckiest Man In The World (vocals)
TTITLE16=Data Track - Data Track
EXTD=
EXTT0=
EXTT1=
EXTT2=
EXTT3=
EXTT4=
EXTT5=
EXTT6=
EXTT7=
EXTT8=
EXTT9=
EXTT10=
EXTT11=
EXTT12=
EXTT13=
EXTT14=
EXTT15=
EXTT16=
PLAYORDER=
